<svg width="40" height="40" viewBox="0 0 40 40" fill="none" xmlns="http://www.w3.org/2000/svg">
<path d="M20 3.33325C10.795 3.33325 3.33337 10.7949 3.33337 19.9999C3.33337 29.2049 10.795 36.6666 20 36.6666C29.205 36.6666 36.6667 29.2049 36.6667 19.9999C36.6667 10.7949 29.205 3.33325 20 3.33325Z" fill="url(#paint0_linear_15_1463)"/>
<path d="M22.2558 24.4176H26.5691L27.2466 20.0359H22.2558V17.6409C22.2558 15.8209 22.8508 14.2068 24.5533 14.2068H27.2891V10.3834C26.8083 10.3184 25.7916 10.1768 23.8708 10.1768C19.8591 10.1768 17.5075 12.2951 17.5075 17.1218V20.0368H13.3833V24.4184H17.5066V36.4618C18.3233 36.5834 19.1508 36.6668 20 36.6668C20.7675 36.6668 21.5166 36.5968 22.2558 36.4968V24.4176Z" fill="white"/>
<defs>
<linearGradient id="paint0_linear_15_1463" x1="8.32754" y1="8.32742" x2="33.8459" y2="33.8457" gradientUnits="userSpaceOnUse">
<stop stop-color="#2AA4F4"/>
<stop offset="1" stop-color="#007AD9"/>
</linearGradient>
</defs>
</svg>
