<svg aria-hidden="true" style="position: absolute; width: 0; height: 0; overflow: hidden;" version="1.1" xmlns="http://www.w3.org/2000/svg" xmlns:xlink="http://www.w3.org/1999/xlink">
<defs>
<symbol id="icon-globe" viewBox="0 0 30 32">
<path d="M15.238 1.932c-7.762 0-14.068 6.306-14.068 14.068s6.306 14.068 14.068 14.068c7.762 0 14.068-6.306 14.068-14.068s-6.306-14.068-14.068-14.068zM14.629 3.223v6.055c-1.565-0.037-3.053-0.212-4.425-0.499 0.242-0.732 0.516-1.412 0.821-2.023 1.008-2.015 2.285-3.241 3.604-3.533zM15.848 3.223c1.318 0.292 2.596 1.518 3.604 3.533 0.306 0.612 0.582 1.295 0.824 2.030-1.37 0.284-2.86 0.456-4.427 0.492v-6.055zM11.686 3.651c-0.662 0.693-1.252 1.56-1.751 2.56-0.348 0.696-0.654 1.465-0.92 2.285-1.197-0.323-2.279-0.728-3.213-1.2 1.573-1.704 3.592-2.987 5.885-3.644zM18.79 3.651c2.29 0.656 4.308 1.938 5.88 3.639-0.921 0.48-2.002 0.891-3.205 1.214-0.267-0.823-0.574-1.595-0.924-2.294-0.5-0.999-1.090-1.866-1.751-2.56zM25.468 8.243c1.522 2.005 2.478 4.464 2.604 7.148h-5.511c-0.044-2.046-0.306-3.978-0.754-5.71 1.368-0.37 2.6-0.855 3.661-1.438zM5.001 8.252c1.072 0.569 2.307 1.048 3.67 1.418-0.449 1.734-0.711 3.67-0.756 5.72h-5.511c0.125-2.68 1.079-5.135 2.596-7.138zM9.86 9.957c1.483 0.315 3.085 0.503 4.769 0.54v4.893h-5.494c0.045-1.958 0.301-3.802 0.725-5.433zM20.619 9.966c0.422 1.629 0.677 3.47 0.723 5.425h-5.494v-4.893c1.685-0.036 3.289-0.22 4.771-0.532zM2.405 16.61h5.511c0.044 2.046 0.306 3.979 0.754 5.71-1.368 0.37-2.6 0.855-3.661 1.438-1.522-2.005-2.479-4.464-2.604-7.148zM9.134 16.61h5.494v4.893c-1.685 0.036-3.289 0.22-4.771 0.532-0.422-1.629-0.677-3.47-0.723-5.425zM15.848 16.61h5.494c-0.045 1.958-0.301 3.802-0.725 5.433-1.483-0.315-3.085-0.503-4.769-0.541v-4.893zM22.561 16.61h5.511c-0.125 2.68-1.079 5.135-2.597 7.138-1.072-0.569-2.306-1.048-3.67-1.418 0.449-1.734 0.711-3.67 0.756-5.72zM14.629 22.723v6.055c-1.318-0.292-2.596-1.518-3.604-3.533-0.306-0.612-0.582-1.295-0.824-2.030 1.37-0.284 2.86-0.455 4.427-0.492zM15.848 22.723c1.565 0.037 3.053 0.212 4.425 0.499-0.242 0.732-0.516 1.412-0.822 2.023-1.008 2.015-2.285 3.241-3.604 3.533v-6.055zM9.011 23.495c0.267 0.823 0.574 1.595 0.924 2.294 0.5 0.999 1.090 1.866 1.751 2.56-2.29-0.656-4.308-1.938-5.88-3.639 0.921-0.48 2.002-0.89 3.205-1.214zM21.462 23.505c1.197 0.323 2.279 0.729 3.213 1.2-1.572 1.704-3.592 2.987-5.884 3.644 0.662-0.693 1.252-1.56 1.751-2.56 0.348-0.696 0.654-1.465 0.92-2.285z"></path>
</symbol>
<symbol id="icon-customer" viewBox="0 0 30 32">
<path d="M15.238 2.286c-4.7 0-8.533 3.92-8.533 8.727 0 3.005 1.5 5.674 3.771 7.247-4.348 1.909-7.429 6.321-7.429 11.454h2.438c0-5.523 4.352-9.974 9.752-9.974s9.752 4.451 9.752 9.974h2.438c0-5.133-3.081-9.545-7.429-11.454 2.271-1.573 3.771-4.242 3.771-7.247 0-4.807-3.833-8.727-8.533-8.727zM15.238 4.779c3.381 0 6.095 2.776 6.095 6.234s-2.714 6.234-6.095 6.234c-3.381 0-6.095-2.776-6.095-6.234s2.714-6.234 6.095-6.234z"></path>
</symbol>
<symbol id="icon-arrow" viewBox="0 0 64 32">
<path d="M32 32l-28.8-32 28.8 5.333 28.8-5.333-28.8 32z"></path>
</symbol>
<symbol id="icon-search" viewBox="0 0 32 32">
<path d="M13.867 3.2c-5.878 0-10.667 4.788-10.667 10.667s4.788 10.667 10.667 10.667c2.556 0 4.904-0.908 6.744-2.415l6.369 6.369c0.098 0.102 0.216 0.184 0.346 0.24s0.271 0.086 0.412 0.087 0.283-0.025 0.414-0.079c0.131-0.054 0.251-0.133 0.351-0.233s0.18-0.22 0.233-0.351c0.054-0.131 0.081-0.272 0.079-0.414s-0.031-0.282-0.087-0.412c-0.056-0.13-0.138-0.248-0.24-0.346l-6.369-6.369c1.507-1.84 2.415-4.188 2.415-6.744 0-5.878-4.788-10.667-10.667-10.667zM13.867 5.333c4.726 0 8.533 3.808 8.533 8.533s-3.808 8.533-8.533 8.533c-4.725 0-8.533-3.808-8.533-8.533s3.808-8.533 8.533-8.533z"></path>
</symbol>
<symbol id="icon-heart" viewBox="0 0 32 32">
<path d="M9.6 4.48c-4.588 0-8.32 3.732-8.32 8.32 0 9.448 10.685 14.11 14.32 17.14l0.4 0.34 0.4-0.34c3.635-3.030 14.32-7.692 14.32-17.14 0-4.588-3.733-8.32-8.32-8.32-2.595 0-4.875 1.232-6.4 3.1-1.525-1.867-3.805-3.1-6.4-3.1zM9.6 5.76c2.455 0 4.6 1.26 5.86 3.16l0.54 0.8 0.54-0.8c1.26-1.9 3.405-3.16 5.86-3.16 3.895 0 7.040 3.145 7.040 7.040 0 8.255-9.22 12.528-13.44 15.86-4.22-3.332-13.44-7.605-13.44-15.86 0-3.895 3.145-7.040 7.040-7.040z"></path>
</symbol>
<symbol id="icon-hotjar" viewBox="0 0 32 32">
<path d="M9 4l1.727 1.908c0.015 0.017 1.455 1.681 1.221 3.629-0.149 1.244-0.96 2.393-2.402 3.404-4.239 2.872-5.525 6.735-3.768 10.484 1.322 2.822 4.22 4.574 7.336 4.574h1.814l-1.137-1.611c-0.908-1.174-0.891-2.516-0.674-3.516 1.545 1.169 3.35 1.020 4.604 0.221 1.151-0.734 1.965-2.056 1.992-3.633 0.258 0.408 0.471 0.883 0.623 1.41 0.442 1.531 0.388 3.866-1.215 5.408l-1.67 1.721h1.574c0.891 0 1.785-0.167 2.582-0.562 2.489-1.235 4.169-3.491 5.055-6.752 0.721-2.655 0.26-6.162-1.266-8.891-3.539-6.351-13.397-7.497-13.814-7.543l-2.582-0.252zM13.453 6.615c2.907 0.654 8.061 2.318 10.199 6.154 1.263 2.257 1.674 5.098 1.074 7.418-0.497 1.941-1.279 3.391-2.397 4.412 0.395-1.498 0.286-3.041-0.072-4.283-0.655-2.268-2.208-3.913-4.055-4.295l-2.203-0.461 1.143 1.951c1.061 1.784 0.486 3.268-0.496 3.894-0.783 0.499-2.063 0.547-3.096-0.969l-0.953-1.401-0.766 1.512c-0.265 0.523-1.292 2.782-0.6 5.156-1.46-0.474-2.935-1.534-3.701-3.254-1.621-3.638 0.811-6.279 3.148-7.863 1.948-1.365 3.045-2.992 3.258-4.834 0.138-1.191-0.125-2.275-0.484-3.139z"></path>
</symbol>
<symbol id="icon-location" viewBox="0 0 32 32">
<path d="M16 0.64c-5.657 0-10.24 4.582-10.24 10.24 0 4.677 2.47 9.705 4.9 13.6s4.86 6.66 4.86 6.66c0.122 0.138 0.297 0.218 0.48 0.218s0.358-0.080 0.48-0.218c0 0 2.433-2.822 4.86-6.74s4.9-8.933 4.9-13.52c0-5.657-4.583-10.24-10.24-10.24zM16 1.92c4.968 0 8.96 3.993 8.96 8.96 0 4.117-2.328 9.012-4.7 12.84-1.987 3.207-3.67 5.273-4.26 5.98-0.595-0.702-2.277-2.723-4.26-5.9-2.37-3.8-4.7-8.702-4.7-12.92 0-4.968 3.993-8.96 8.96-8.96zM16 7.040c-2.467 0-4.48 2.013-4.48 4.48s2.012 4.48 4.48 4.48 4.48-2.013 4.48-4.48c0-2.467-2.013-4.48-4.48-4.48zM16 8.32c1.775 0 3.2 1.425 3.2 3.2s-1.425 3.2-3.2 3.2c-1.775 0-3.2-1.425-3.2-3.2s1.425-3.2 3.2-3.2z"></path>
</symbol>
<symbol id="icon-schedule" viewBox="0 0 30 32">
<path d="M8.462 0.889c-1.155 0-2.271 0.194-3.324 0.656-0.203 0.080-0.347 0.267-0.373 0.486-0.028 0.22 0.066 0.434 0.246 0.562 0.177 0.13 0.413 0.151 0.612 0.057 0.881-0.385 1.82-0.552 2.84-0.552 4.028 0 7.253 3.225 7.253 7.253s-3.225 7.253-7.253 7.253c-4.028 0-7.253-3.225-7.253-7.253 0-1.837 0.704-3.48 1.813-4.784v1.58c-0.002 0.217 0.111 0.42 0.3 0.531 0.189 0.109 0.42 0.109 0.609 0 0.189-0.111 0.302-0.314 0.3-0.531v-3.445h-3.445c-0.217-0.002-0.42 0.111-0.531 0.3-0.109 0.189-0.109 0.42 0 0.609 0.111 0.189 0.314 0.302 0.531 0.3h1.204c-1.214 1.48-1.99 3.358-1.99 5.44 0 4.677 3.785 8.462 8.462 8.462s8.462-3.785 8.462-8.462c0-4.677-3.785-8.462-8.462-8.462zM22.969 0.889c-0.661 0-1.209 0.548-1.209 1.209v1.209h-5.761c0.307 0.38 0.581 0.786 0.826 1.209h4.935v1.209c0 0.661 0.548 1.209 1.209 1.209h1.209c0.661 0 1.209-0.548 1.209-1.209v-1.209h3.022v4.231h-10.306c0.012 0.201 0.031 0.399 0.031 0.604s-0.019 0.404-0.031 0.604h10.306v18.738h-25.387v-11.352c-0.432-0.295-0.831-0.628-1.209-0.985v12.337c0 0.701 0.508 1.209 1.209 1.209h25.387c0.701 0 1.209-0.508 1.209-1.209v-24.178c0-0.701-0.508-1.209-1.209-1.209h-3.022v-1.209c0-0.661-0.548-1.209-1.209-1.209h-1.209zM22.969 2.098h1.209v3.627h-1.209v-3.627zM8.453 3.902c-0.333 0.007-0.6 0.281-0.595 0.614v4.739c-0.019 0.13 0.002 0.262 0.066 0.378 0.054 0.109 0.142 0.198 0.248 0.257l2.347 1.759c0.267 0.201 0.645 0.146 0.845-0.123 0.201-0.267 0.146-0.645-0.123-0.845l-2.175-1.632v-4.533c0.002-0.163-0.061-0.321-0.177-0.437s-0.274-0.179-0.437-0.177zM17.642 12.373c-0.137 0.418-0.307 0.819-0.498 1.209h2.198v3.022h-4.231v4.231h-3.022v-2.524c-0.39 0.158-0.796 0.286-1.209 0.392v2.132h-3.022v-1.844c-0.411-0.026-0.815-0.071-1.209-0.146v7.43h18.133v-13.902h-7.14zM20.551 13.582h3.022v3.022h-3.022v-3.022zM16.32 17.813h3.022v3.022h-3.022v-3.022zM20.551 17.813h3.022v3.022h-3.022v-3.022zM7.858 22.044h3.022v3.022h-3.022v-3.022zM12.089 22.044h3.022v3.022h-3.022v-3.022zM16.32 22.044h3.022v3.022h-3.022v-3.022zM20.551 22.044h3.022v3.022h-3.022v-3.022z"></path>
</symbol>

<symbol id="icon-twitter" viewBox="0 0 32 32">
<path d="M21.389 4.068c-3.654 0-6.625 2.971-6.625 6.625 0 0.22 0.055 0.434 0.076 0.649-4.517-0.432-8.512-2.608-11.225-5.937-0.126-0.16-0.322-0.246-0.527-0.231-0.203 0.014-0.384 0.131-0.484 0.308-0.57 0.981-0.897 2.11-0.897 3.322 0 1.468 0.525 2.811 1.336 3.914-0.158-0.069-0.329-0.107-0.477-0.191-0.189-0.1-0.415-0.095-0.599 0.014s-0.296 0.308-0.298 0.52v0.076c0 2.25 1.165 4.205 2.883 5.403-0.019-0.002-0.038 0.005-0.057 0-0.21-0.036-0.422 0.038-0.563 0.198s-0.186 0.382-0.124 0.585c0.683 2.121 2.425 3.742 4.582 4.334-1.718 1.021-3.711 1.623-5.861 1.623-0.465 0-0.912-0.024-1.355-0.076-0.286-0.038-0.561 0.129-0.656 0.401-0.098 0.272 0.010 0.575 0.255 0.725 2.756 1.768 6.028 2.806 9.545 2.806 5.701 0 10.173-2.382 13.173-5.785s4.563-7.822 4.563-11.951c0-0.174-0.014-0.344-0.019-0.515 1.119-0.857 2.119-1.861 2.902-3.035 0.155-0.227 0.138-0.53-0.041-0.74-0.177-0.21-0.475-0.274-0.723-0.157-0.315 0.141-0.682 0.155-1.012 0.267 0.434-0.58 0.807-1.205 1.031-1.909 0.076-0.241-0.007-0.506-0.205-0.663-0.198-0.155-0.475-0.174-0.692-0.043-1.043 0.618-2.198 1.052-3.417 1.317-1.184-1.107-2.742-1.852-4.486-1.852zM21.389 5.29c1.558 0 2.966 0.666 3.952 1.718 0.148 0.153 0.365 0.217 0.573 0.172 0.797-0.157 1.554-0.389 2.291-0.687-0.425 0.573-0.95 1.062-1.565 1.432-0.279 0.136-0.41 0.458-0.308 0.752 0.1 0.291 0.406 0.461 0.709 0.394 0.611-0.074 1.155-0.322 1.737-0.477-0.523 0.566-1.095 1.076-1.718 1.527-0.169 0.124-0.262 0.325-0.248 0.535 0.010 0.248 0.019 0.494 0.019 0.745 0 3.818-1.465 7.963-4.257 11.13s-6.892 5.384-12.256 5.384c-2.436 0-4.737-0.539-6.815-1.489 2.577-0.198 4.954-1.11 6.873-2.616 0.2-0.16 0.279-0.427 0.198-0.671s-0.305-0.41-0.561-0.418c-2.014-0.036-3.701-1.208-4.601-2.864 0.033 0 0.062 0 0.095 0 0.604 0 1.2-0.076 1.756-0.229 0.267-0.079 0.451-0.327 0.441-0.606s-0.208-0.518-0.48-0.577c-2.174-0.439-3.804-2.21-4.181-4.41 0.616 0.212 1.246 0.379 1.928 0.401 0.279 0.017 0.532-0.158 0.618-0.422s-0.019-0.556-0.255-0.704c-1.451-0.971-2.405-2.625-2.405-4.505 0-0.697 0.181-1.336 0.42-1.947 3.055 3.353 7.331 5.579 12.161 5.823 0.191 0.010 0.377-0.069 0.501-0.215 0.124-0.148 0.172-0.344 0.129-0.53-0.093-0.396-0.153-0.816-0.153-1.241 0-2.992 2.41-5.403 5.403-5.403z"></path>
</symbol>

<symbol id="icon-mail" viewBox="0 0 32 32">
<path d="M4.174 6.957v18.087h25.043v-18.087h-25.043zM5.176 7.961h23.040v16.077h-23.040v-16.077zM6.177 10.432v1.185l10.518 5.98 10.518-5.98v-1.185l-10.518 5.98-10.518-5.98z"></path>
</symbol>

<symbol id="icon-phone" viewBox="0 0 32 32">
<path d="M10.036 5.57c-0.389-0.032-0.822 0.081-1.221 0.361-0.352 0.245-1.11 0.847-1.819 1.529-0.354 0.34-0.691 0.693-0.952 1.041-0.263 0.348-0.492 0.666-0.478 1.128 0.014 0.415 0.055 1.641 0.938 3.522 0.883 1.878 2.596 4.456 5.936 7.798 3.343 3.342 5.921 5.055 7.799 5.938s3.107 0.924 3.522 0.938c0.46 0.014 0.778-0.215 1.126-0.478s0.701-0.599 1.041-0.952c0.68-0.709 1.282-1.468 1.527-1.819 0.559-0.796 0.466-1.736-0.156-2.173-0.391-0.275-3.989-2.669-4.53-3-0.549-0.336-1.181-0.184-1.746 0.115-0.445 0.235-1.648 0.924-1.991 1.122-0.259-0.164-1.241-0.818-3.352-2.929-2.114-2.111-2.766-3.093-2.93-3.352 0.198-0.344 0.885-1.541 1.122-1.993 0.296-0.563 0.462-1.201 0.109-1.754-0.148-0.235-0.822-1.26-1.501-2.289-0.682-1.029-1.328-2.005-1.495-2.238v-0.002c-0.219-0.302-0.561-0.48-0.948-0.512zM9.944 6.603c0.138 0.018 0.221 0.073 0.221 0.073 0.081 0.113 0.79 1.175 1.47 2.202 0.68 1.029 1.373 2.084 1.493 2.276 0.020 0.030 0.047 0.365-0.15 0.739v0.002c-0.223 0.425-1.264 2.244-1.264 2.244l-0.144 0.255 0.148 0.253c0 0 0.776 1.309 3.246 3.779 2.471 2.469 3.781 3.247 3.781 3.247l0.253 0.148 0.255-0.144c0 0 1.816-1.039 2.244-1.264 0.373-0.195 0.709-0.17 0.749-0.146 0.35 0.215 4.235 2.797 4.474 2.965 0.008 0.006 0.219 0.326-0.089 0.765h-0.002c-0.186 0.267-0.794 1.039-1.428 1.699-0.318 0.33-0.644 0.638-0.921 0.845s-0.524 0.273-0.484 0.275c-0.431-0.014-1.381-0.024-3.125-0.843-1.744-0.818-4.234-2.455-7.515-5.738-3.279-3.279-4.917-5.768-5.737-7.514-0.818-1.744-0.828-2.694-0.842-3.123 0.002 0.040 0.067-0.209 0.275-0.486s0.514-0.604 0.844-0.922c0.662-0.634 1.432-1.242 1.699-1.428v0.002c0.219-0.154 0.411-0.174 0.549-0.158z"></path>
</symbol>

<symbol id="icon-earth" viewBox="0 0 32 32">
<path d="M16.16 0c8.837 0 16 7.163 16 16s-7.163 16-16 16c-8.837 0-16-7.163-16-16s7.163-16 16-16z"></path>
<path d="M12 6.72c-0.039 0-0.063 0.008-0.097 0.019s-0.073 0.027-0.115 0.049c-0.085 0.045-0.186 0.114-0.283 0.218-0.194 0.207-0.369 0.55-0.369 1.070v1.166l-2.166 1.425c-0.017 0.011-0.031 0.027-0.041 0.044s-0.015 0.038-0.015 0.059v0.51c0 0.018 0.004 0.037 0.012 0.053s0.020 0.031 0.034 0.043c0.014 0.012 0.031 0.020 0.049 0.024s0.037 0.004 0.055 0l2.077-0.461c0.028 0.568 0.2 1.19 0.228 1.288l-0.691 0.69c-0.023 0.023-0.036 0.054-0.036 0.087v0.246c0 0.020 0.005 0.039 0.014 0.056s0.022 0.032 0.038 0.044 0.034 0.019 0.054 0.022c0.019 0.003 0.039 0.001 0.058-0.005l0.741-0.246c0.031-0.010 0.057-0.033 0.071-0.062s0.017-0.063 0.007-0.094c-0.010-0.031-0.033-0.057-0.062-0.071s-0.063-0.017-0.094-0.007l-0.578 0.193v-0.025l0.704-0.703c0.016-0.016 0.027-0.035 0.032-0.056s0.005-0.044-0.001-0.065c0 0-0.242-0.862-0.242-1.445 0-0.002 0-0.004 0-0.006v-1.457c0.002-0.011 0.002-0.023 0-0.035v-1.213c0-0.466 0.149-0.739 0.302-0.902 0.076-0.081 0.155-0.135 0.217-0.168 0.031-0.016 0.058-0.027 0.077-0.034s0.036-0.006 0.020-0.006 0.001-0 0.020 0.006 0.046 0.017 0.077 0.034c0.062 0.032 0.141 0.086 0.217 0.168 0.153 0.163 0.302 0.436 0.302 0.902v1.214c-0.001 0.011-0.001 0.022 0 0.033v1.464c0 0 0 0.001 0 0.001-0 0.583-0.242 1.444-0.242 1.444-0.006 0.021-0.006 0.043-0.001 0.065s0.017 0.041 0.032 0.056l0.704 0.703v0.025l-0.578-0.193c-0.031-0.010-0.065-0.008-0.094 0.007s-0.052 0.040-0.062 0.071c-0.010 0.031-0.008 0.065 0.007 0.094s0.040 0.052 0.071 0.062l0.741 0.246c0.019 0.006 0.038 0.008 0.058 0.005s0.038-0.010 0.054-0.022c0.016-0.011 0.029-0.026 0.038-0.044s0.014-0.037 0.014-0.056v-0.246c-0-0.033-0.013-0.064-0.036-0.087l-0.691-0.69c0.028-0.099 0.2-0.72 0.228-1.288l2.077 0.461c0.018 0.004 0.037 0.004 0.055-0s0.035-0.012 0.049-0.024c0.014-0.012 0.026-0.026 0.034-0.043s0.012-0.035 0.012-0.053v-0.493c0-0.020-0.005-0.040-0.015-0.058s-0.023-0.033-0.040-0.044l-2.167-1.442v-1.166c0-0.52-0.175-0.863-0.369-1.070-0.097-0.103-0.198-0.173-0.283-0.218-0.043-0.022-0.081-0.038-0.115-0.049s-0.058-0.019-0.097-0.019zM11.753 7.706c-0.016-0-0.033 0.003-0.048 0.009s-0.029 0.015-0.041 0.027c-0.012 0.011-0.021 0.025-0.027 0.040s-0.010 0.031-0.010 0.048c0 0.016 0.003 0.032 0.010 0.048s0.016 0.029 0.027 0.040 0.025 0.021 0.041 0.027c0.015 0.006 0.031 0.009 0.048 0.009h0.494c0.016 0 0.033-0.003 0.048-0.009s0.029-0.015 0.041-0.027c0.012-0.011 0.021-0.025 0.027-0.040s0.010-0.031 0.010-0.048c0-0.016-0.003-0.032-0.010-0.048s-0.016-0.029-0.027-0.040c-0.012-0.011-0.025-0.020-0.041-0.027s-0.031-0.009-0.048-0.009h-0.494zM16.32 7.706c-0.214 0-0.425 0.008-0.635 0.023-0.658 0.048-1.296 0.17-1.906 0.357-0.032 0.009-0.061 0.024-0.086 0.045s-0.047 0.046-0.062 0.075c-0.016 0.029-0.025 0.060-0.029 0.093s0 0.065 0.010 0.097c0.010 0.031 0.025 0.060 0.046 0.086s0.047 0.046 0.076 0.061c0.029 0.015 0.061 0.024 0.094 0.027s0.066-0.001 0.097-0.011c0.111-0.034 0.223-0.063 0.336-0.092l-0.148 0.295c-0.009 0.017-0.013 0.036-0.013 0.055v0.294c-0 0.016 0.003 0.033 0.009 0.048s0.015 0.029 0.027 0.041c0.011 0.012 0.025 0.021 0.040 0.027s0.031 0.010 0.048 0.010c0.016 0 0.033-0.003 0.048-0.010s0.029-0.016 0.040-0.027c0.011-0.012 0.021-0.025 0.027-0.041s0.009-0.031 0.009-0.048v-0.265l0.227-0.454c0.374-0.082 0.757-0.141 1.148-0.169 0.198-0.014 0.398-0.022 0.599-0.022 0.083 0 0.165 0.004 0.247 0.006v0.335l-0.2 0.399h-0.171c-0.033 0-0.064 0.013-0.087 0.036l-0.226 0.226-0.713 0.237c-0.018 0.006-0.035 0.016-0.048 0.030s-0.024 0.030-0.030 0.048l-0.058 0.173c-0.010 0.031-0.008 0.065 0.007 0.094s0.040 0.052 0.071 0.062 0.065 0.008 0.094-0.007c0.029-0.015 0.052-0.040 0.062-0.071l0.038-0.115 0.682-0.227c0.018-0.006 0.035-0.016 0.048-0.030l0.211-0.21h0.196c0.023-0 0.045-0.006 0.065-0.018s0.035-0.029 0.045-0.050l0.247-0.493c0.009-0.017 0.013-0.036 0.013-0.055v-0.353c0.96 0.057 1.874 0.279 2.715 0.639v0.421l-0.477 0.834c-0.011 0.019-0.016 0.040-0.016 0.061v0.37c0 0.033 0.013 0.064 0.036 0.087s0.055 0.036 0.087 0.036h0.494c0.033 0 0.064-0.013 0.087-0.036l0.175-0.175 0.286 0.191c0.020 0.014 0.044 0.021 0.068 0.021h0.37c0.033 0 0.064-0.013 0.087-0.036l0.247-0.246c0.023-0.023 0.036-0.054 0.036-0.087s-0.013-0.064-0.036-0.087l-0.211-0.21v-0.481c0.169 0.11 0.334 0.225 0.494 0.347v0.858l-0.655 0.436h-0.899l-0.211-0.21c-0.012-0.012-0.025-0.021-0.041-0.028s-0.032-0.010-0.048-0.010c-0.025 0-0.049 0.007-0.069 0.021s-0.036 0.033-0.045 0.056c-0.009 0.023-0.011 0.048-0.006 0.072s0.017 0.046 0.035 0.063l0.176 0.175-0.414 0.62-0.701 0.233c-0.017 0.006-0.032 0.015-0.045 0.027s-0.023 0.027-0.030 0.043c-0.007 0.016-0.010 0.034-0.009 0.051s0.005 0.035 0.013 0.051l0.234 0.467v0.587h-0.617c-0.021 0-0.042 0.005-0.060 0.016s-0.034 0.025-0.045 0.043c-0.011 0.018-0.017 0.038-0.018 0.059s0.003 0.042 0.013 0.061l0.219 0.438-0.219 0.438c-0.015 0.029-0.017 0.063-0.006 0.094s0.033 0.057 0.062 0.071l0.494 0.246c0.017 0.008 0.036 0.013 0.055 0.013h0.37c0.024 0 0.048-0.007 0.068-0.021l0.37-0.246c0.017-0.011 0.031-0.027 0.040-0.044s0.015-0.038 0.015-0.058v-0.195l0.211-0.21c0.023-0.023 0.036-0.054 0.036-0.087v-0.322l0.578 0.193c0.022 0.007 0.045 0.008 0.067 0.003s0.043-0.017 0.059-0.033l0.406-0.406 0.37 0.37v0.688c0 0.033 0.013 0.064 0.036 0.087s0.055 0.036 0.087 0.036h0.247c0.019 0 0.038-0.004 0.055-0.013s0.032-0.021 0.044-0.036l0.238-0.316c0.014-0.015 0.025-0.033 0.030-0.053l0.319 0.159c0.017 0.008 0.036 0.013 0.055 0.013s0.038-0.004 0.055-0.013l0.494-0.246c0.021-0.010 0.038-0.026 0.050-0.045s0.019-0.042 0.019-0.065v-0.123h0.387l-0.366 0.548c-0.012 0.018-0.019 0.039-0.020 0.061s0.003 0.043 0.013 0.063l0.247 0.493c0.010 0.021 0.026 0.038 0.045 0.050s0.042 0.018 0.065 0.018h0.274l0.089 0.355-0.192 0.384h-0.664c-0.033 0-0.064 0.013-0.087 0.036l-0.184 0.184-0.414-0.207c-0.010-0.005-0.020-0.008-0.031-0.011l-0.558-0.111-0.343-0.686c-0.007-0.015-0.017-0.027-0.029-0.038s-0.026-0.019-0.042-0.024l-0.37-0.123c-0.022-0.007-0.046-0.008-0.069-0.002l-0.973 0.243h-0.725c-0.028-0-0.055 0.009-0.077 0.027l-0.617 0.493c-0.014 0.012-0.026 0.026-0.034 0.043s-0.012 0.035-0.012 0.053v0.17l-0.672 0.336c-0.022 0.011-0.040 0.028-0.052 0.049l-0.494 0.863c-0.011 0.020-0.017 0.043-0.016 0.065s0.008 0.045 0.021 0.064l0.226 0.339v0.418l-0.226 0.339c-0.014 0.020-0.021 0.044-0.021 0.068v0.37c-0 0.028 0.009 0.055 0.027 0.077l0.494 0.616c0.008 0.010 0.017 0.018 0.028 0.026l0.741 0.493c0.020 0.014 0.044 0.021 0.068 0.021h0.741c0.033 0 0.064-0.013 0.087-0.036l0.431-0.43 0.89 0.444 0.17 0.17-0.207 0.414c-0.012 0.023-0.015 0.049-0.011 0.075s0.016 0.049 0.035 0.067l0.458 0.457v0.404l-0.226 0.339c-0.014 0.020-0.021 0.044-0.021 0.068v0.37c-0 0.016 0.003 0.031 0.009 0.046l0.238 0.594v0.124c-0.122 0.079-0.245 0.158-0.371 0.231-0.028 0.016-0.053 0.038-0.072 0.064s-0.034 0.055-0.042 0.086c-0.008 0.031-0.010 0.064-0.006 0.096s0.015 0.063 0.031 0.091c0.016 0.028 0.038 0.053 0.064 0.072s0.055 0.034 0.087 0.042c0.031 0.008 0.064 0.010 0.096 0.006s0.063-0.015 0.091-0.031c2.579-1.492 4.32-4.27 4.32-7.46 0-4.762-3.871-8.627-8.64-8.627zM19.776 8.966c0.254 0.119 0.502 0.25 0.741 0.394v0.688c0 0.033 0.013 0.064 0.036 0.087l0.16 0.159-0.123 0.123h-0.282l-0.339-0.226c-0.024-0.016-0.052-0.023-0.081-0.020s-0.055 0.015-0.075 0.036l-0.211 0.21h-0.319v-0.214l0.477-0.834c0.011-0.019 0.016-0.040 0.016-0.061v-0.342zM11.136 9.537v1.151l-1.975 0.439v-0.29l1.975-1.299zM12.864 9.538l1.975 1.315v0.273l-1.975-0.439v-1.15zM21.504 10.056c0.804 0.663 1.479 1.478 1.98 2.4l-0.216 0.216c-0.009 0.009-0.017 0.020-0.023 0.032l-0.247 0.493c-0.009 0.017-0.013 0.036-0.013 0.055s0.004 0.038 0.013 0.055l0.158 0.315h-0.541c-0.033 0-0.064 0.013-0.087 0.036s-0.036 0.054-0.036 0.087v0.17l-0.37 0.185-0.37-0.185v-0.417c0-0.033-0.013-0.064-0.036-0.087l-0.494-0.493c-0.012-0.012-0.025-0.021-0.041-0.028s-0.032-0.010-0.048-0.010c-0.025 0-0.049 0.007-0.069 0.021s-0.036 0.033-0.045 0.056c-0.009 0.023-0.011 0.048-0.006 0.072s0.017 0.046 0.035 0.063l0.458 0.457v0.438c-0 0.001-0 0.003 0 0.004v0.123l-0.185 0.246h-0.062v-0.616c0-0.033-0.013-0.064-0.036-0.087l-0.494-0.493c-0.023-0.023-0.055-0.036-0.087-0.036s-0.064 0.013-0.087 0.036l-0.44 0.439-0.668-0.222c-0.019-0.006-0.038-0.008-0.058-0.005s-0.038 0.010-0.054 0.022c-0.016 0.011-0.029 0.026-0.038 0.044s-0.014 0.037-0.014 0.056v0.442l-0.211 0.21c-0.023 0.023-0.036 0.054-0.036 0.087v0.181l-0.284 0.189h-0.304l-0.357-0.178 0.192-0.383c0.009-0.017 0.013-0.036 0.013-0.055s-0.004-0.038-0.013-0.055l-0.158-0.315h0.541c0.033 0 0.064-0.013 0.087-0.036s0.036-0.054 0.036-0.087v-0.739c-0-0.019-0.004-0.038-0.013-0.055l-0.183-0.366 0.606-0.202c0.026-0.009 0.048-0.026 0.064-0.049l0.457-0.685h0.921c0.024 0 0.048-0.007 0.068-0.021l0.741-0.493c0.017-0.011 0.031-0.027 0.040-0.044s0.015-0.038 0.015-0.058v-0.731zM17.923 10.415c-0.016 0-0.032 0.004-0.047 0.010s-0.028 0.016-0.040 0.027c-0.011 0.012-0.020 0.025-0.026 0.040s-0.009 0.031-0.009 0.047v0.37c0 0.023 0.006 0.045 0.019 0.065s0.029 0.035 0.050 0.045l0.178 0.089v0.17c0 0.023 0.006 0.045 0.019 0.065s0.029 0.035 0.050 0.045l0.273 0.136-0.273 0.136c-0.015 0.007-0.029 0.017-0.040 0.029s-0.020 0.027-0.026 0.042c-0.006 0.016-0.008 0.032-0.007 0.049s0.005 0.033 0.013 0.048 0.018 0.028 0.030 0.039c0.013 0.011 0.027 0.019 0.043 0.024s0.033 0.007 0.049 0.005c0.017-0.002 0.033-0.007 0.047-0.015l0.494-0.246c0.020-0.010 0.038-0.026 0.050-0.045s0.018-0.042 0.018-0.065c0-0.023-0.006-0.045-0.018-0.065s-0.029-0.035-0.050-0.045l-0.425-0.212v-0.17c0-0.023-0.006-0.045-0.019-0.065s-0.029-0.035-0.050-0.045l-0.178-0.089v-0.294c0-0.017-0.003-0.033-0.009-0.048s-0.015-0.029-0.027-0.041c-0.012-0.012-0.026-0.021-0.041-0.027s-0.032-0.009-0.048-0.009zM17.429 11.155c-0.025 0-0.049 0.007-0.069 0.021s-0.036 0.033-0.045 0.056c-0.009 0.023-0.011 0.048-0.006 0.072s0.017 0.046 0.035 0.063l0.16 0.159-0.16 0.159c-0.012 0.011-0.021 0.025-0.028 0.040s-0.010 0.031-0.010 0.048c-0 0.016 0.003 0.033 0.009 0.048s0.015 0.029 0.027 0.041c0.012 0.012 0.025 0.021 0.041 0.027s0.032 0.009 0.048 0.009 0.033-0.004 0.048-0.010c0.015-0.007 0.029-0.016 0.040-0.028l0.247-0.246c0.023-0.023 0.036-0.054 0.036-0.087s-0.013-0.064-0.036-0.087l-0.247-0.246c-0.012-0.012-0.025-0.021-0.041-0.028s-0.032-0.010-0.048-0.010zM8.909 12.14c-0.044 0.001-0.088 0.014-0.125 0.037s-0.068 0.057-0.088 0.096c-0.648 1.21-1.016 2.593-1.016 4.060 0 4.762 3.871 8.627 8.64 8.627 0.432 0 0.856-0.033 1.27-0.093 0.033-0.004 0.064-0.014 0.093-0.031s0.054-0.038 0.074-0.064c0.020-0.026 0.035-0.056 0.043-0.088s0.010-0.065 0.005-0.098-0.016-0.064-0.033-0.092c-0.017-0.028-0.040-0.053-0.066-0.072s-0.057-0.033-0.089-0.041c-0.032-0.007-0.065-0.008-0.098-0.003-0.392 0.057-0.792 0.088-1.199 0.088-0.992 0-1.942-0.177-2.821-0.501l0.092-0.184c0.009-0.017 0.013-0.036 0.013-0.055v-0.33l0.471-0.651c0.015-0.021 0.023-0.046 0.023-0.072v-0.302c0-0.033-0.013-0.064-0.036-0.087l-0.247-0.247c-0.023-0.023-0.055-0.036-0.087-0.036h-0.312l-0.212-0.258c-0.011-0.013-0.024-0.024-0.040-0.031l-0.614-0.314c-0.011-0.006-0.024-0.010-0.036-0.012l-0.688-0.114-0.464-0.695c-0.011-0.017-0.027-0.031-0.044-0.040s-0.038-0.015-0.058-0.015h-0.35l-0.312-0.104-0.223-0.335c-0.011-0.017-0.027-0.031-0.044-0.040s-0.038-0.015-0.058-0.015h-0.34l-0.449-0.233c-0.018-0.010-0.039-0.014-0.059-0.014-0.018 0-0.036 0.005-0.052 0.012l-0.342 0.167c-0.211-0.422-0.386-0.864-0.522-1.324l0.124-0.124c0.023-0.023 0.036-0.054 0.036-0.087v-0.442l0.211-0.21c0.023-0.023 0.036-0.054 0.036-0.087v-0.493c0-0.033-0.013-0.064-0.036-0.087s-0.055-0.036-0.087-0.036h-0.494c-0.032 0-0.063 0.012-0.086 0.035-0.024-0.255-0.038-0.513-0.038-0.774 0-0.334 0.021-0.663 0.060-0.986h0.259l0.175 0.174v0.442c0 0.033 0.013 0.064 0.036 0.087l0.247 0.247c0.021 0.020 0.048 0.033 0.077 0.036 0.004 0 0.008 0.001 0.013 0 0.032-0 0.063-0.013 0.085-0.036l0.247-0.247c0.003-0.003 0.006-0.006 0.008-0.009 0.018-0.022 0.028-0.050 0.028-0.078v-0.493c-0-0.012-0.002-0.024-0.005-0.035l-0.161-0.54 0.308-0.264 0.42 0.21c0.017 0.008 0.036 0.013 0.055 0.013s0.038-0.004 0.055-0.013l0.494-0.246c0.021-0.010 0.038-0.026 0.050-0.045s0.019-0.042 0.019-0.065v-0.493c0-0.017-0.003-0.033-0.009-0.048s-0.015-0.029-0.027-0.041-0.026-0.021-0.041-0.027c-0.015-0.006-0.032-0.009-0.048-0.009s-0.032 0.004-0.047 0.010c-0.015 0.006-0.028 0.016-0.040 0.027s-0.020 0.025-0.026 0.040c-0.006 0.015-0.009 0.031-0.009 0.047v0.238c-0 0.003-0 0.006 0 0.009v0.17l-0.37 0.185-0.439-0.219c-0.022-0.011-0.046-0.015-0.070-0.012s-0.047 0.013-0.065 0.029l-0.431 0.37c-0.018 0.016-0.031 0.036-0.038 0.059s-0.007 0.047 0 0.070l0.178 0.599v0.424l-0.123 0.123-0.123-0.123v-0.442c0-0.033-0.013-0.064-0.036-0.087l-0.247-0.246c-0.023-0.023-0.055-0.036-0.087-0.036h-0.273c0.141-0.925 0.435-1.8 0.861-2.595 0.021-0.038 0.031-0.081 0.031-0.124s-0.013-0.086-0.036-0.123c-0.023-0.037-0.054-0.068-0.093-0.088s-0.081-0.031-0.124-0.030zM11.998 12.387c-0.016 0-0.032 0.004-0.047 0.010s-0.028 0.016-0.040 0.027c-0.011 0.012-0.020 0.025-0.026 0.040s-0.009 0.031-0.009 0.047v0.986c-0 0.016 0.003 0.033 0.009 0.048s0.015 0.029 0.027 0.041 0.025 0.021 0.040 0.027c0.015 0.006 0.031 0.010 0.048 0.010s0.033-0.003 0.048-0.010c0.015-0.006 0.029-0.016 0.040-0.027s0.021-0.025 0.027-0.041c0.006-0.015 0.009-0.031 0.009-0.048v-0.986c0-0.017-0.003-0.033-0.009-0.048s-0.015-0.029-0.027-0.041c-0.012-0.012-0.026-0.021-0.041-0.027s-0.032-0.009-0.048-0.009zM23.603 12.686c0.132 0.263 0.252 0.534 0.355 0.813-0.003 0-0.006 0.001-0.010 0.001l-0.525 0.105-0.177-0.354 0.21-0.42 0.146-0.146zM24.043 13.744c0.229 0.683 0.372 1.406 0.411 2.156l-0.271-0.271c-0.012-0.012-0.025-0.021-0.041-0.028s-0.032-0.010-0.048-0.010c-0.025 0-0.049 0.007-0.069 0.021s-0.036 0.033-0.045 0.056c-0.009 0.023-0.011 0.048-0.006 0.072s0.017 0.046 0.035 0.063l0.456 0.455c0 0.025 0.002 0.049 0.002 0.074 0 0.681-0.088 1.341-0.246 1.972h-0.247v-0.616c0-0.009-0.001-0.018-0.003-0.027l-0.247-1.109c-0.006-0.028-0.022-0.054-0.045-0.072s-0.051-0.027-0.080-0.026c-0.018 0.001-0.036 0.005-0.052 0.014s-0.030 0.020-0.042 0.035c-0.011 0.015-0.019 0.031-0.023 0.049s-0.004 0.036 0.001 0.054l0.244 1.096v0.726c0 0.033 0.013 0.064 0.036 0.087s0.055 0.036 0.087 0.036h0.308c-0.515 1.81-1.646 3.357-3.148 4.416-0.001-0.009-0.004-0.017-0.007-0.025l-0.238-0.594v-0.309l0.226-0.339c0.014-0.020 0.021-0.044 0.021-0.068v-0.493c0-0.033-0.013-0.064-0.036-0.087l-0.431-0.43 0.207-0.414c0.012-0.023 0.015-0.049 0.011-0.075s-0.016-0.049-0.035-0.067l-0.247-0.246c-0.009-0.009-0.020-0.017-0.032-0.023l-0.987-0.493c-0.023-0.012-0.049-0.015-0.075-0.011s-0.049 0.016-0.067 0.034l-0.458 0.457h-0.652l-0.694-0.462-0.455-0.568v-0.289l0.226-0.339c0.014-0.020 0.021-0.044 0.021-0.068v-0.493c0-0.024-0.007-0.048-0.021-0.068l-0.204-0.306 0.437-0.764 0.707-0.353c0.021-0.010 0.038-0.026 0.050-0.045s0.019-0.042 0.019-0.065v-0.187l0.537-0.429h0.697c0.010-0 0.020-0.001 0.030-0.004l0.953-0.238 0.287 0.096 0.348 0.694c0.008 0.017 0.021 0.032 0.036 0.043s0.032 0.019 0.051 0.023l0.601 0.12 0.479 0.239c0.023 0.012 0.049 0.015 0.075 0.011s0.049-0.016 0.067-0.034l0.211-0.21h0.689c0.023-0 0.045-0.006 0.065-0.019s0.035-0.029 0.045-0.050l0.247-0.493c0.013-0.026 0.016-0.056 0.009-0.085l-0.123-0.493c-0.007-0.027-0.022-0.050-0.044-0.067s-0.048-0.026-0.076-0.026h-0.294l-0.181-0.361 0.426-0.637 0.555-0.111 0.058-0zM11.998 14.111c-0.034 0-0.068 0.008-0.1 0.022s-0.059 0.035-0.082 0.060c-0.023 0.026-0.040 0.056-0.051 0.088s-0.014 0.067-0.011 0.101c0.131 1.434 1.037 4.028 2.7 6.316s4.109 4.261 7.297 4.261c1.036 0 1.846-0.307 2.392-0.826s0.817-1.238 0.817-2.009c0-0.543-0.169-0.956-0.169-0.956-0.011-0.031-0.029-0.059-0.052-0.083s-0.050-0.043-0.080-0.057c-0.030-0.013-0.063-0.020-0.096-0.021s-0.066 0.006-0.097 0.018c-0.031 0.012-0.058 0.031-0.082 0.054s-0.042 0.051-0.054 0.082-0.018 0.063-0.018 0.096c0.001 0.033 0.008 0.066 0.021 0.096 0 0 0.133 0.327 0.133 0.77 0 0.658-0.223 1.233-0.664 1.651s-1.112 0.69-2.052 0.69c-2.984 0-5.29-1.847-6.898-4.058s-2.491-4.793-2.607-6.070c-0.005-0.062-0.033-0.12-0.079-0.163s-0.106-0.066-0.169-0.065zM9.038 16.579c-0.016-0-0.033 0.003-0.048 0.009s-0.029 0.015-0.041 0.027c-0.012 0.011-0.021 0.025-0.027 0.040s-0.010 0.031-0.010 0.048c0 0.016 0.003 0.032 0.010 0.048s0.016 0.029 0.027 0.040c0.012 0.012 0.025 0.020 0.041 0.027s0.031 0.009 0.048 0.009h0.196l0.211 0.21c0.014 0.014 0.031 0.024 0.049 0.030s0.038 0.007 0.058 0.004c0.019-0.003 0.038-0.011 0.053-0.022s0.028-0.027 0.037-0.044l0.088-0.176 0.208 0.208c0.023 0.023 0.055 0.036 0.087 0.036h0.123v0.123c-0 0.016 0.003 0.033 0.009 0.048s0.015 0.029 0.027 0.041c0.011 0.012 0.025 0.021 0.040 0.027s0.031 0.010 0.048 0.010 0.033-0.003 0.048-0.010c0.015-0.006 0.029-0.016 0.040-0.027s0.021-0.025 0.027-0.041c0.006-0.015 0.009-0.031 0.009-0.048v-0.247c0-0.033-0.013-0.064-0.036-0.087s-0.055-0.036-0.087-0.036h-0.196l-0.211-0.21c-0.023-0.023-0.055-0.036-0.087-0.036h-0.123c-0.023 0-0.045 0.006-0.065 0.018s-0.035 0.029-0.045 0.050l-0.047 0.093-0.126-0.126c-0.023-0.023-0.055-0.036-0.087-0.036h-0.247zM10.768 16.825c-0.021-0-0.043 0.005-0.061 0.015s-0.035 0.025-0.046 0.043c-0.011 0.018-0.018 0.039-0.019 0.060s0.004 0.043 0.014 0.061l0.123 0.247c0.010 0.020 0.026 0.038 0.045 0.050s0.042 0.018 0.065 0.018h0.37c0.016 0 0.033-0.003 0.048-0.009s0.029-0.015 0.041-0.027c0.012-0.012 0.021-0.025 0.027-0.040s0.010-0.031 0.010-0.048c0-0.016-0.003-0.032-0.010-0.048s-0.016-0.029-0.027-0.040-0.025-0.020-0.041-0.027c-0.015-0.006-0.031-0.009-0.048-0.009h-0.294l-0.089-0.178c-0.010-0.020-0.025-0.038-0.044-0.050s-0.041-0.019-0.064-0.020zM8.373 17.319h0.294v0.319l-0.211 0.21c-0.023 0.023-0.036 0.054-0.036 0.087v0.39c-0.065-0.258-0.118-0.52-0.157-0.787l0.11-0.22zM9.424 20.045l0.421 0.218c0.018 0.009 0.037 0.014 0.057 0.014h0.304l0.21 0.315c0.015 0.023 0.038 0.040 0.064 0.049l0.37 0.123c0.013 0.004 0.026 0.006 0.039 0.006h0.304l0.457 0.685c0.009 0.014 0.021 0.026 0.036 0.035s0.030 0.015 0.047 0.018l0.722 0.12 0.575 0.294 0.233 0.283c0.012 0.014 0.026 0.025 0.043 0.033s0.035 0.012 0.053 0.012h0.319l0.175 0.174v0.212l-0.471 0.651c-0.015 0.021-0.023 0.046-0.023 0.072v0.341l-0.089 0.177c-1.77-0.714-3.23-2.028-4.127-3.693l0.282-0.138z"></path>
</symbol>

<symbol id="icon-home" viewBox="0 0 32 32">
<path d="M16.16 0c8.837 0 16 7.163 16 16s-7.163 16-16 16c-8.837 0-16-7.163-16-16s7.163-16 16-16z"></path>
<path d="M15.947 7.040c-0.053 0-0.106 0.017-0.151 0.050l-8.867 6.537c-0.064 0.048-0.102 0.122-0.102 0.202v2.514c0 0.095 0.054 0.182 0.14 0.225s0.188 0.034 0.265-0.023l0.609-0.449v8.292c0 0.067 0.027 0.131 0.074 0.178s0.112 0.074 0.179 0.074h15.707c0.067 0 0.132-0.026 0.179-0.074s0.074-0.111 0.074-0.178v-8.292l0.609 0.449c0.045 0.033 0.097 0.050 0.151 0.050 0.039 0 0.078-0.009 0.114-0.026 0.086-0.043 0.14-0.13 0.14-0.225v-2.514c0-0.079-0.038-0.154-0.102-0.202l-2.178-1.606v-2.969h0.38c0.034 0 0.066-0.013 0.090-0.037s0.037-0.056 0.037-0.089v-1.006c0-0.033-0.013-0.065-0.037-0.089s-0.056-0.037-0.090-0.037h-2.533c-0.034 0-0.066 0.013-0.090 0.037s-0.037 0.056-0.037 0.089v1.006c0 0.033 0.013 0.065 0.037 0.089s0.056 0.037 0.090 0.037h0.38v1.662l-4.916-3.624c-0.045-0.033-0.098-0.050-0.151-0.050zM15.947 7.605l5.067 3.735v0.728c-0 0.020 0.005 0.039 0.013 0.056s0.021 0.033 0.037 0.044l0.76 0.566c0.027 0.020 0.061 0.029 0.094 0.024s0.063-0.022 0.084-0.049c0.020-0.027 0.029-0.060 0.024-0.093s-0.023-0.063-0.049-0.083l-0.71-0.528v-3.080c0-0.033-0.013-0.065-0.037-0.089s-0.056-0.037-0.090-0.037h-0.38v-0.754h2.28v0.754h-0.38c-0.034 0-0.066 0.013-0.090 0.037s-0.037 0.056-0.037 0.089v4.023l-0.049-0.036c-0.013-0.011-0.028-0.019-0.045-0.024s-0.034-0.006-0.051-0.004c-0.017 0.002-0.034 0.007-0.048 0.016s-0.028 0.020-0.038 0.034-0.018 0.029-0.022 0.046c-0.004 0.017-0.005 0.034-0.002 0.051s0.009 0.033 0.018 0.047c0.009 0.014 0.021 0.027 0.036 0.036l0.251 0.188c0.019 0.014 0.041 0.023 0.065 0.025s0.047-0.002 0.068-0.013c0.021-0.010 0.039-0.027 0.051-0.046s0.019-0.043 0.019-0.066v-0.552l1.773 1.308v1.888l-8.462-6.239c-0.089-0.066-0.212-0.066-0.302 0l-8.462 6.239v-1.888l8.613-6.35zM15.947 10.119l7.6 5.603v8.415h-2.533v-6.663c0-0.033-0.013-0.065-0.037-0.089s-0.056-0.037-0.090-0.037h-4.307c-0.034 0-0.066 0.013-0.090 0.037s-0.037 0.056-0.037 0.089v6.663h-8.107v-8.415l7.6-5.603zM10.753 16.343c-0.034 0-0.066 0.013-0.090 0.037s-0.037 0.056-0.037 0.089v3.52c0 0.033 0.013 0.065 0.037 0.089s0.056 0.037 0.090 0.037h3.547c0.034 0 0.066-0.013 0.090-0.037s0.037-0.056 0.037-0.089v-2.766c0-0.017-0.003-0.033-0.009-0.049s-0.016-0.029-0.027-0.041c-0.012-0.012-0.026-0.021-0.041-0.028s-0.032-0.010-0.049-0.010c-0.017 0-0.033 0.003-0.049 0.010s-0.030 0.016-0.041 0.028c-0.012 0.012-0.021 0.026-0.027 0.041s-0.009 0.032-0.009 0.049v2.64h-1.52v-3.268h1.14c0.017 0 0.033-0.003 0.049-0.009s0.030-0.015 0.042-0.027c0.012-0.012 0.021-0.026 0.028-0.041s0.010-0.032 0.010-0.049-0.003-0.033-0.010-0.049c-0.006-0.015-0.016-0.029-0.028-0.041s-0.026-0.021-0.042-0.027c-0.016-0.006-0.032-0.009-0.049-0.009h-3.040zM10.88 16.595h1.52v3.268h-1.52v-3.268zM16.707 17.6h4.053v6.537h-4.053v-6.537zM20 20.617c-0.067 0-0.132 0.026-0.179 0.074s-0.074 0.111-0.074 0.178 0.027 0.131 0.074 0.178c0.048 0.047 0.112 0.074 0.179 0.074s0.132-0.026 0.179-0.074c0.048-0.047 0.074-0.111 0.074-0.178s-0.027-0.131-0.074-0.178c-0.047-0.047-0.112-0.074-0.179-0.074z"></path>
</symbol>

<symbol id="icon-cash" viewBox="0 0 32 32">
<path d="M16.267 0c8.837 0 16 7.163 16 16s-7.163 16-16 16c-8.837 0-16-7.163-16-16s7.163-16 16-16z"></path>
<path d="M18.526 7.042c-0.017-0.003-0.034-0.003-0.050 0.002l-9.626 2.214c-0.012 0.003-0.022 0.009-0.032 0.014-0.577 0.056-1.031 0.537-1.031 1.127v13.452c0 0.611 0.499 1.109 1.112 1.109h11.274c1.85 0 3.355-1.501 3.355-3.346v-2.574h0.873c0.367 0 0.665-0.298 0.665-0.664v-2.652c0-0.301-0.245-0.545-0.547-0.545h-0.992v-2.574c0-1.71-1.294-3.122-2.956-3.32l-0.483-1.467c-0.019-0.059-0.077-0.095-0.14-0.087l-1.149 0.157-0.169-0.749c-0.008-0.033-0.029-0.062-0.057-0.080-0.015-0.009-0.031-0.015-0.047-0.018zM18.407 7.324l0.136 0.602-6.837 0.938 6.701-1.541zM19.877 8.002l0.416 1.264c-0.040-0.001-0.080-0.006-0.12-0.006h-9.458l9.162-1.258zM8.928 9.775h11.245c1.565 0 2.839 1.27 2.839 2.831v2.574h-4c-1.067 0-1.935 0.866-1.935 1.93s0.868 1.93 1.935 1.93h2.968v1.993c0 1.314-1.049 2.383-2.339 2.383h-9.221c-0.598 0-1.084-0.496-1.084-1.105v-1.854c0-0.071-0.058-0.129-0.129-0.129s-0.129 0.058-0.129 0.129v1.854c0 0.752 0.602 1.363 1.342 1.363h9.221c1.432 0 2.598-1.184 2.598-2.64v-1.993h0.774v2.574c0 1.561-1.273 2.831-2.839 2.831h-11.274c-0.329 0-0.596-0.266-0.596-0.594v-13.452c0-0.344 0.28-0.624 0.626-0.624zM10.363 10.547c-0.709 0-1.286 0.575-1.286 1.282v5.538c0 0.071 0.058 0.129 0.129 0.129s0.129-0.058 0.129-0.129v-5.538c0-0.565 0.461-1.025 1.028-1.025h9.424c0.071 0 0.129-0.058 0.129-0.129s-0.058-0.129-0.129-0.129h-9.424zM22.109 12.606c-0.071 0-0.129 0.058-0.129 0.129v0.515c0 0.071 0.058 0.129 0.129 0.129s0.129-0.058 0.129-0.129v-0.515c0-0.071-0.058-0.129-0.129-0.129zM11.343 12.688c-0.033 0-0.066 0.012-0.091 0.037-0.050 0.050-0.050 0.132 0 0.182l0.757 0.755-0.756 0.755c-0.050 0.050-0.050 0.132 0 0.182 0.025 0.025 0.058 0.038 0.091 0.038s0.066-0.012 0.091-0.038l0.756-0.755 0.756 0.755c0.025 0.025 0.059 0.038 0.092 0.038s0.066-0.012 0.091-0.038c0.050-0.050 0.050-0.132 0-0.182l-1.696-1.691c-0.025-0.025-0.058-0.037-0.091-0.037zM13.038 12.688c-0.033 0-0.066 0.013-0.091 0.038l-0.394 0.393c-0.050 0.050-0.050 0.132 0 0.182 0.025 0.025 0.058 0.038 0.091 0.038s0.066-0.013 0.091-0.038l0.394-0.393c0.050-0.050 0.050-0.132 0-0.182-0.025-0.025-0.058-0.038-0.091-0.038zM15.728 12.688c-0.033 0-0.066 0.012-0.091 0.037-0.050 0.050-0.050 0.132 0 0.182l0.757 0.755-0.757 0.755c-0.050 0.050-0.050 0.132 0 0.182 0.025 0.025 0.059 0.038 0.092 0.038s0.066-0.012 0.091-0.038l0.757-0.755 0.757 0.755c0.025 0.025 0.058 0.038 0.091 0.038s0.066-0.012 0.091-0.038c0.050-0.050 0.050-0.132 0-0.182l-1.695-1.691c-0.025-0.025-0.058-0.037-0.091-0.037zM17.423 12.688c-0.033 0-0.066 0.013-0.091 0.038l-0.394 0.394c-0.050 0.050-0.050 0.132 0 0.182 0.025 0.025 0.058 0.038 0.091 0.038s0.066-0.013 0.091-0.038l0.394-0.394c0.050-0.050 0.050-0.132 0-0.182-0.025-0.025-0.058-0.038-0.091-0.038zM22.109 13.635c-0.071 0-0.129 0.058-0.129 0.129v1.029c0 0.071 0.058 0.129 0.129 0.129s0.129-0.058 0.129-0.129v-1.029c0-0.071-0.058-0.129-0.129-0.129zM19.012 15.437h5.508c0.159 0 0.289 0.129 0.289 0.288v2.652c0 0.224-0.183 0.406-0.407 0.406h-5.389c-0.925 0-1.677-0.75-1.677-1.673s0.752-1.673 1.677-1.673zM19.528 16.466c-0.356 0-0.645 0.288-0.645 0.643s0.289 0.643 0.645 0.643c0.356 0 0.645-0.288 0.645-0.643s-0.289-0.643-0.645-0.643zM19.528 16.724c0.213 0 0.387 0.173 0.387 0.386s-0.174 0.386-0.387 0.386-0.387-0.173-0.387-0.386c0-0.213 0.174-0.386 0.387-0.386zM9.206 18.783c-0.071 0-0.129 0.058-0.129 0.129v1.029c0 0.071 0.058 0.129 0.129 0.129s0.129-0.058 0.129-0.129v-1.029c0-0.071-0.058-0.129-0.129-0.129zM11.099 19.262c-0.033 0-0.066 0.013-0.091 0.038-0.050 0.050-0.050 0.132 0 0.182l0.757 0.755-0.757 0.755c-0.050 0.050-0.050 0.132 0 0.182 0.025 0.025 0.058 0.038 0.091 0.038s0.066-0.012 0.091-0.038l0.756-0.755 0.757 0.755c0.025 0.025 0.058 0.038 0.091 0.038s0.066-0.012 0.091-0.038c0.050-0.050 0.050-0.132 0-0.182l-1.696-1.691c-0.025-0.025-0.058-0.038-0.091-0.038zM12.795 19.262c-0.033 0-0.066 0.013-0.091 0.038l-0.395 0.393c-0.050 0.050-0.050 0.132 0 0.182 0.025 0.025 0.058 0.038 0.091 0.038s0.066-0.012 0.091-0.038l0.395-0.393c0.050-0.050 0.050-0.132 0-0.182-0.025-0.025-0.058-0.038-0.091-0.038zM15.484 19.262c-0.033 0-0.066 0.013-0.091 0.038-0.050 0.050-0.050 0.132 0 0.182l0.757 0.755-0.757 0.755c-0.050 0.050-0.050 0.132 0 0.182 0.025 0.025 0.058 0.038 0.091 0.038s0.066-0.012 0.091-0.038l0.757-0.755 0.756 0.755c0.025 0.025 0.059 0.038 0.092 0.038s0.066-0.012 0.091-0.038c0.050-0.050 0.050-0.132 0-0.182l-1.695-1.691c-0.025-0.025-0.058-0.038-0.091-0.038zM17.179 19.262c-0.033 0-0.066 0.013-0.091 0.038l-0.394 0.393c-0.050 0.050-0.050 0.132 0 0.182 0.025 0.025 0.058 0.038 0.091 0.038s0.066-0.012 0.091-0.038l0.394-0.393c0.050-0.050 0.050-0.132 0-0.182-0.025-0.025-0.058-0.038-0.091-0.038z"></path>
</symbol>

<symbol id="icon-deal" viewBox="0 0 32 32">
<path d="M16.053 0c8.837 0 16 7.163 16 16s-7.163 16-16 16c-8.837 0-16-7.163-16-16s7.163-16 16-16z"></path>
<path d="M19.016 6.72c-0.224 0-0.448 0.084-0.618 0.253l-1.931 1.918c-0.215-0.005-0.464-0.022-0.727-0.040-1.173-0.082-2.753-0.192-3.637 0.629l-1.743-1.691c-0.091-0.088-0.238-0.087-0.327 0.004s-0.087 0.236 0.004 0.324l1.911 1.854c0.043 0.042 0.101 0.065 0.162 0.065 0.004 0 0.008 0 0.013 0 0.065-0.004 0.125-0.034 0.166-0.084 0.686-0.835 2.202-0.728 3.419-0.644 0.109 0.007 0.215 0.015 0.318 0.021l-1.38 1.371c-0.014 0.013-0.024 0.030-0.030 0.049-0.035 0.044-0.052 0.1-0.049 0.156s0.027 0.109 0.068 0.149l0.263 0.267 7.024 7.227c0.001 0.001 0.002 0.002 0.003 0.003 0.332 0.329 0.332 0.856 0 1.186-0.166 0.165-0.38 0.245-0.597 0.245-0.209 0-0.416-0.077-0.579-0.231-0.006-0.006-0.010-0.012-0.016-0.017v-0l-0.697-0.689c-0.022-0.022-0.047-0.040-0.076-0.051s-0.059-0.018-0.090-0.018c-0.046 0-0.091 0.014-0.129 0.039s-0.068 0.062-0.085 0.104c-0.017 0.042-0.021 0.089-0.012 0.133s0.032 0.085 0.065 0.117l0.666 0.658c0.009 0.012 0.018 0.023 0.029 0.034 0.005 0.005 0.012 0.010 0.017 0.015 0.315 0.33 0.311 0.844-0.015 1.167-0.166 0.165-0.38 0.245-0.597 0.245-0.208 0-0.413-0.077-0.575-0.228-0.007-0.007-0.012-0.014-0.019-0.021l-0.003 0.003-0.694-0.692c-0.021-0.022-0.047-0.040-0.075-0.052s-0.059-0.019-0.089-0.019c-0.031-0-0.061 0.005-0.090 0.017s-0.054 0.028-0.076 0.050c-0.022 0.021-0.039 0.047-0.051 0.075s-0.018 0.058-0.017 0.089c0 0.031 0.007 0.061 0.019 0.089s0.030 0.053 0.052 0.075l0.695 0.692c0.006 0.006 0.013 0.011 0.019 0.017 0.313 0.33 0.309 0.842-0.016 1.165-0.166 0.165-0.38 0.245-0.597 0.245-0.209 0-0.414-0.077-0.577-0.229-0.006-0.006-0.011-0.013-0.017-0.019v-0l-0.698-0.689c-0.022-0.022-0.047-0.039-0.076-0.051s-0.059-0.018-0.090-0.018c-0.046 0-0.091 0.014-0.129 0.039s-0.068 0.062-0.085 0.104c-0.017 0.042-0.021 0.089-0.012 0.133s0.032 0.085 0.065 0.117l0.697 0.689-0.003 0.003c0.006 0.006 0.013 0.011 0.019 0.017 0.313 0.33 0.309 0.842-0.016 1.165v0c-0.166 0.165-0.38 0.245-0.597 0.245s-0.431-0.080-0.597-0.245v-0l-1.395-1.384c-0.020-0.268-0.115-0.533-0.303-0.742-0.211-0.236-0.537-0.391-0.932-0.391-0.111 0-0.216 0.013-0.315 0.036 0.024-0.102 0.041-0.205 0.041-0.309 0-0.302-0.1-0.607-0.311-0.843s-0.537-0.391-0.932-0.391c-0.111 0-0.216 0.013-0.315 0.036 0.024-0.102 0.041-0.205 0.041-0.309 0-0.302-0.1-0.608-0.311-0.843s-0.537-0.391-0.932-0.391c-0.111 0-0.217 0.013-0.316 0.036 0.024-0.102 0.041-0.205 0.041-0.309 0-0.302-0.1-0.607-0.311-0.843s-0.537-0.391-0.932-0.391c-0.018 0-0.035 0.002-0.053 0.003l-0.94-0.896c-0.519-0.495-0.535-1.307-0.037-1.823 0.042-0.044 0.065-0.102 0.064-0.162s-0.026-0.118-0.069-0.16l-1.908-1.851c-0.022-0.022-0.048-0.039-0.076-0.051s-0.059-0.017-0.090-0.017c-0.046 0.001-0.091 0.015-0.129 0.041s-0.067 0.062-0.084 0.105c-0.017 0.042-0.021 0.089-0.011 0.133s0.033 0.085 0.066 0.117l1.778 1.724c-0.509 0.694-0.465 1.664 0.175 2.275l0.729 0.695c-0.136 0.067-0.253 0.154-0.348 0.259-0.211 0.236-0.311 0.541-0.311 0.843s0.1 0.607 0.311 0.843c0.211 0.236 0.537 0.391 0.932 0.391 0.111 0 0.216-0.013 0.316-0.036-0.024 0.102-0.041 0.205-0.041 0.309 0 0.302 0.1 0.607 0.311 0.843s0.537 0.391 0.932 0.391c0.111 0 0.216-0.013 0.315-0.036-0.024 0.102-0.041 0.205-0.041 0.309 0 0.302 0.1 0.607 0.311 0.843s0.537 0.391 0.932 0.391c0.111 0 0.216-0.013 0.315-0.036-0.024 0.102-0.041 0.205-0.041 0.309 0 0.302 0.1 0.608 0.311 0.843s0.537 0.391 0.932 0.391 0.721-0.155 0.932-0.391c0.1-0.111 0.172-0.239 0.224-0.374l1.147 1.138c0.254 0.252 0.59 0.38 0.924 0.38s0.67-0.127 0.924-0.38c0.313-0.311 0.433-0.744 0.36-1.148 0.078 0.014 0.156 0.021 0.235 0.021 0.334 0 0.67-0.127 0.924-0.38 0.313-0.311 0.433-0.744 0.36-1.148 0.078 0.014 0.156 0.021 0.235 0.021 0.334 0 0.67-0.127 0.924-0.38 0.313-0.311 0.433-0.744 0.36-1.148 0.078 0.014 0.156 0.021 0.235 0.021 0.334 0 0.67-0.127 0.924-0.38 0.364-0.362 0.466-0.887 0.308-1.342l0.583-0.555c0-0 0-0 0-0 0.641-0.612 0.685-1.582 0.174-2.276l3.067-3.032c0.034-0.032 0.056-0.074 0.066-0.119s0.005-0.092-0.013-0.135c-0.018-0.043-0.049-0.079-0.088-0.104s-0.085-0.038-0.132-0.036c-0.060 0.002-0.117 0.026-0.159 0.069l-3.195 3.159c-0.043 0.042-0.067 0.1-0.068 0.16s0.022 0.118 0.064 0.161c0.499 0.515 0.483 1.327-0.036 1.823l-0.498 0.475c-0.023-0.027-0.047-0.054-0.072-0.079l-1.497-1.54 3.715-3.687c0.341-0.338 0.341-0.89 0-1.228l-2.978-2.955c0.010-0.007 0.020-0.015 0.029-0.024l0.506-0.488c0.034-0.032 0.057-0.073 0.067-0.118s0.006-0.092-0.012-0.135c-0.018-0.043-0.048-0.079-0.087-0.105s-0.085-0.039-0.131-0.038c-0.060 0.001-0.117 0.025-0.16 0.067l-0.506 0.487c-0.011 0.010-0.021 0.021-0.029 0.034l-1.535-1.523c-0.17-0.169-0.395-0.253-0.619-0.253zM19.016 6.948c0.164 0 0.329 0.063 0.455 0.188l4.835 4.798c0.252 0.25 0.252 0.653 0 0.903l-3.712 3.684-0.542-0.558 2.628-2.609c0-0 0.001-0.001 0.001-0.001l0.177-0.179c0.021-0.022 0.033-0.051 0.033-0.081s-0.012-0.059-0.034-0.080c-0.351-0.348-0.351-0.91 0-1.259 0.022-0.021 0.034-0.051 0.034-0.081s-0.012-0.060-0.034-0.081l-3.042-3.019c-0.022-0.021-0.051-0.033-0.082-0.033s-0.060 0.012-0.082 0.034c-0.351 0.348-0.917 0.348-1.268-0-0.011-0.011-0.024-0.019-0.038-0.025s-0.030-0.008-0.045-0.008c-0.030 0-0.059 0.012-0.080 0.033l-1.172 1.163c-0.011 0.011-0.020 0.023-0.026 0.037s-0.009 0.029-0.009 0.044c-0 0.015 0.003 0.030 0.009 0.044s0.014 0.027 0.025 0.038c0.011 0.011 0.024 0.019 0.038 0.025s0.029 0.009 0.045 0.008 0.031-0.003 0.045-0.009c0.014-0.006 0.027-0.015 0.038-0.026l1.107-1.098c0.411 0.329 0.987 0.329 1.398 0l0.204 0.202 2.708 2.688c-0.331 0.408-0.332 0.981 0 1.388l-0.113 0.114-2.625 2.605-1.114-1.146c0.108-0.215 0.17-0.456 0.17-0.712 0-0.886-0.724-1.607-1.615-1.607h-0.002c-0.238-0-0.464 0.052-0.667 0.144l-1.006-1.035c0.003-0.003 0.006-0.005 0.009-0.008l0.014-0.015c0 0 0 0 0 0l0.101-0.1c0.017-0.016 0.028-0.037 0.033-0.059s0.002-0.046-0.007-0.067c-0.009-0.021-0.024-0.039-0.044-0.052s-0.042-0.019-0.066-0.018c-0.030 0.001-0.058 0.013-0.079 0.034l-0.116 0.115c-0.002 0.002-0.004 0.004-0.005 0.005l-0.268-0.275c-0-0-0.001-0.001-0.001-0.001l-0.263-0.267c-0.004-0.004-0.008-0.008-0.013-0.012l3.608-3.585c0.126-0.125 0.29-0.188 0.455-0.188zM16.592 10.234c-0.030 0.001-0.059 0.014-0.079 0.035l-0.358 0.355c-0.011 0.011-0.019 0.023-0.025 0.037s-0.009 0.029-0.009 0.044c0 0.015 0.003 0.030 0.009 0.044s0.014 0.027 0.025 0.037c0.011 0.011 0.024 0.019 0.038 0.025s0.029 0.009 0.044 0.009c0.015-0 0.030-0.003 0.044-0.009s0.027-0.014 0.037-0.025l0.358-0.355c0.017-0.016 0.028-0.037 0.033-0.060s0.002-0.046-0.007-0.068c-0.009-0.021-0.024-0.039-0.044-0.052s-0.043-0.019-0.066-0.018zM19.884 10.786c-0.191 0-0.383 0.072-0.528 0.217-0.291 0.288-0.291 0.76 0 1.048s0.765 0.288 1.056 0c0.291-0.288 0.291-0.76 0-1.048-0.145-0.144-0.337-0.217-0.528-0.217zM19.884 11.014c0.132 0 0.263 0.051 0.365 0.151 0.202 0.201 0.202 0.523 0 0.724s-0.527 0.201-0.729 0c-0.202-0.201-0.202-0.523 0-0.724 0.101-0.1 0.233-0.151 0.365-0.151zM17.331 12.562h0.001c0.766 0 1.385 0.616 1.385 1.378-0 0.19-0.041 0.37-0.111 0.534l-1.768-1.819c0.154-0.058 0.319-0.094 0.494-0.094zM16.708 15.939c-0.025-0-0.050 0.007-0.071 0.021s-0.037 0.034-0.047 0.057c-0.009 0.023-0.012 0.049-0.007 0.073s0.018 0.047 0.036 0.064l0.506 0.502c0.013 0.014 0.030 0.026 0.048 0.033l1.731 1.718c0.011 0.011 0.023 0.020 0.038 0.026s0.029 0.009 0.045 0.009 0.031-0.003 0.045-0.008c0.014-0.006 0.027-0.014 0.038-0.025s0.019-0.024 0.025-0.038c0.006-0.014 0.009-0.029 0.009-0.044s-0.003-0.030-0.009-0.044c-0.006-0.014-0.015-0.027-0.026-0.037l-1.731-1.718c-0.007-0.018-0.018-0.034-0.033-0.047l-0.506-0.503c-0.012-0.012-0.026-0.022-0.041-0.028s-0.032-0.010-0.049-0.010zM15.19 17.446c-0.025 0-0.050 0.008-0.070 0.022s-0.037 0.034-0.046 0.057-0.012 0.048-0.007 0.073c0.005 0.024 0.017 0.047 0.035 0.064l0.253 0.251c0.012 0.012 0.027 0.022 0.043 0.028l0.723 0.718c0.011 0.011 0.023 0.020 0.038 0.026s0.029 0.009 0.045 0.009c0.015 0 0.031-0.003 0.045-0.009s0.027-0.014 0.038-0.025c0.011-0.011 0.019-0.024 0.025-0.038s0.009-0.029 0.009-0.044c-0-0.015-0.003-0.030-0.009-0.044s-0.015-0.027-0.026-0.037l-0.723-0.717c-0.006-0.017-0.016-0.032-0.029-0.044l-0.253-0.251c-0.012-0.012-0.026-0.021-0.042-0.028s-0.032-0.010-0.049-0.010zM8.991 17.677c0.28 0 0.46 0.096 0.587 0.237s0.195 0.338 0.195 0.538c0 0.2-0.068 0.397-0.195 0.538s-0.307 0.237-0.587 0.237c-0.28 0-0.46-0.096-0.586-0.237s-0.195-0.338-0.195-0.538c0-0.2 0.069-0.397 0.195-0.538s0.307-0.237 0.586-0.237zM16.708 18.964c-0.023 0-0.046 0.007-0.065 0.020s-0.034 0.031-0.043 0.052c-0.009 0.021-0.011 0.044-0.006 0.067s0.016 0.043 0.033 0.059l0.759 0.753c0.011 0.011 0.023 0.019 0.037 0.025s0.029 0.009 0.044 0.009c0.015 0 0.030-0.003 0.044-0.009s0.027-0.014 0.038-0.025c0.011-0.011 0.019-0.023 0.025-0.037s0.009-0.029 0.009-0.044c0-0.015-0.003-0.030-0.009-0.044s-0.014-0.027-0.025-0.037l-0.759-0.753c-0.011-0.011-0.024-0.020-0.038-0.026s-0.030-0.009-0.045-0.009zM10.51 19.183c0.28 0 0.46 0.096 0.586 0.237s0.195 0.338 0.195 0.538c0 0.2-0.069 0.397-0.195 0.538s-0.307 0.237-0.586 0.237c-0.28 0-0.46-0.096-0.587-0.237s-0.194-0.338-0.194-0.538c0-0.2 0.068-0.397 0.194-0.538s0.307-0.237 0.587-0.237zM14.43 19.718c-0.023 0-0.045 0.007-0.064 0.020s-0.034 0.031-0.042 0.052c-0.009 0.021-0.011 0.044-0.006 0.067s0.016 0.043 0.032 0.059l1.518 1.507c0.011 0.011 0.023 0.020 0.037 0.026s0.029 0.009 0.045 0.009c0.015 0 0.031-0.003 0.045-0.008s0.027-0.014 0.038-0.025c0.011-0.011 0.019-0.024 0.025-0.038s0.009-0.029 0.009-0.044c-0-0.015-0.003-0.030-0.009-0.044s-0.015-0.027-0.026-0.037l-1.518-1.507c-0.011-0.011-0.024-0.020-0.038-0.026s-0.030-0.009-0.045-0.009zM12.028 20.691c0.28 0 0.46 0.096 0.587 0.237s0.194 0.338 0.194 0.538c0 0.2-0.068 0.397-0.194 0.538s-0.307 0.237-0.587 0.237c-0.28 0-0.46-0.096-0.587-0.237s-0.195-0.338-0.195-0.538c0-0.2 0.068-0.397 0.195-0.538s0.307-0.237 0.587-0.237zM13.546 22.197c0.28 0 0.46 0.096 0.587 0.237 0.121 0.136 0.188 0.323 0.193 0.515-0.002 0.016-0.002 0.031-0 0.047-0.005 0.192-0.071 0.379-0.192 0.515-0.126 0.141-0.307 0.237-0.587 0.237s-0.46-0.096-0.586-0.237c-0.126-0.141-0.195-0.338-0.195-0.538s0.069-0.397 0.195-0.538c0.126-0.141 0.307-0.237 0.586-0.237z"></path>
</symbol>

<symbol id="icon-Vector" viewBox="0 0 34 32">
<path d="M16.776 0c-0.097 0-0.193 0.031-0.274 0.091l-16.121 11.885c-0.117 0.086-0.186 0.223-0.186 0.367v4.571c0 0.173 0.098 0.331 0.254 0.409s0.342 0.062 0.481-0.042l1.107-0.816v15.077c0 0.121 0.049 0.238 0.135 0.323s0.204 0.134 0.326 0.134h28.558c0.122 0 0.239-0.048 0.326-0.134s0.135-0.202 0.135-0.323v-15.077l1.107 0.816c0.081 0.060 0.177 0.090 0.274 0.090 0.070 0 0.142-0.016 0.207-0.048 0.156-0.078 0.254-0.236 0.254-0.409v-4.571c0-0.144-0.069-0.281-0.186-0.367l-3.959-2.92v-5.399h0.691c0.061 0 0.12-0.024 0.163-0.067s0.067-0.101 0.067-0.162v-1.829c0-0.061-0.024-0.119-0.067-0.162s-0.102-0.067-0.163-0.067h-4.606c-0.061 0-0.12 0.024-0.163 0.067s-0.067 0.101-0.067 0.162v1.829c0 0.061 0.024 0.119 0.067 0.162s0.102 0.067 0.163 0.067h0.691v3.022l-8.938-6.589c-0.081-0.060-0.178-0.091-0.274-0.091zM16.776 1.028l9.212 6.792v1.324c-0 0.036 0.008 0.070 0.024 0.102s0.039 0.059 0.068 0.081l1.382 1.029c0.049 0.036 0.11 0.052 0.171 0.044s0.115-0.041 0.152-0.089c0.037-0.049 0.053-0.11 0.044-0.17s-0.041-0.114-0.090-0.151l-1.29-0.96v-5.6c0-0.061-0.024-0.119-0.067-0.162s-0.102-0.067-0.163-0.067h-0.691v-1.371h4.145v1.371h-0.691c-0.061 0-0.12 0.024-0.163 0.067s-0.067 0.101-0.067 0.162v7.314l-0.089-0.066c-0.024-0.020-0.052-0.035-0.082-0.043s-0.061-0.012-0.092-0.008c-0.031 0.004-0.061 0.013-0.088 0.029s-0.051 0.036-0.069 0.061-0.032 0.053-0.040 0.083c-0.007 0.030-0.009 0.061-0.003 0.092s0.017 0.060 0.034 0.086c0.017 0.026 0.039 0.048 0.065 0.066l0.457 0.341c0.034 0.026 0.075 0.041 0.118 0.045s0.086-0.004 0.124-0.023c0.038-0.019 0.071-0.048 0.093-0.084s0.034-0.078 0.034-0.12v-1.004l3.224 2.378v3.432l-15.386-11.343c-0.163-0.121-0.386-0.121-0.549 0l-15.386 11.343v-3.432l15.661-11.546zM16.776 5.599l13.818 10.187v15.3h-4.606v-12.114c0-0.061-0.024-0.119-0.067-0.162s-0.102-0.067-0.163-0.067h-7.83c-0.061 0-0.12 0.024-0.163 0.067s-0.067 0.101-0.067 0.162v12.114h-14.739v-15.3l13.818-10.187zM7.333 16.915c-0.061 0-0.12 0.024-0.163 0.067s-0.067 0.101-0.067 0.162v6.4c0 0.061 0.024 0.119 0.067 0.162s0.102 0.067 0.163 0.067h6.448c0.061 0 0.12-0.024 0.163-0.067s0.068-0.101 0.068-0.162v-5.028c0-0.030-0.005-0.060-0.017-0.088s-0.028-0.054-0.050-0.075c-0.021-0.022-0.047-0.039-0.075-0.050s-0.058-0.018-0.089-0.018c-0.030 0-0.061 0.006-0.089 0.018s-0.054 0.029-0.075 0.050c-0.021 0.022-0.038 0.047-0.050 0.075s-0.017 0.058-0.017 0.088v4.8h-2.764v-5.943h2.073c0.031 0 0.061-0.005 0.089-0.016s0.054-0.028 0.076-0.049c0.022-0.021 0.039-0.047 0.051-0.075s0.018-0.058 0.018-0.088-0.006-0.060-0.018-0.088c-0.012-0.028-0.029-0.053-0.051-0.075s-0.047-0.038-0.076-0.049c-0.028-0.011-0.059-0.017-0.089-0.016h-5.527zM7.564 17.372h2.764v5.943h-2.764v-5.943zM18.158 19.2h7.37v11.885h-7.37v-11.885zM24.145 24.686c-0.122 0-0.239 0.048-0.326 0.134s-0.135 0.202-0.135 0.323 0.049 0.238 0.135 0.323c0.086 0.086 0.204 0.134 0.326 0.134s0.239-0.048 0.326-0.134c0.086-0.086 0.135-0.202 0.135-0.323s-0.049-0.238-0.135-0.323c-0.086-0.086-0.204-0.134-0.326-0.134z"></path>
</symbol>

<symbol id="icon-clock" viewBox="0 0 30 32">
<path d="M15.158 2.055c-7.689 0-13.945 6.255-13.945 13.945s6.256 13.945 13.945 13.945 13.945-6.255 13.945-13.945c0-7.69-6.256-13.945-13.945-13.945zM22.879 8.53l-6.118 6.628c0.133 0.253 0.216 0.537 0.216 0.843 0 0.461-0.177 0.877-0.46 1.198l2.202 3.965c0.163 0.292 0.057 0.661-0.235 0.824-0.093 0.052-0.195 0.076-0.294 0.076-0.213 0-0.42-0.113-0.531-0.312l-2.201-3.962c-0.098 0.016-0.197 0.030-0.3 0.030-1.005 0-1.819-0.814-1.819-1.819s0.814-1.819 1.819-1.819c0.255 0 0.497 0.053 0.717 0.148l6.113-6.623c0.227-0.245 0.611-0.261 0.857-0.034s0.261 0.611 0.035 0.857z"></path>
</symbol>

<symbol id="icon-file-text" viewBox="0 0 32 32">
<path d="M27 0h-24c-1.65 0-3 1.35-3 3v26c0 1.65 1.35 3 3 3h24c1.65 0 3-1.35 3-3v-26c0-1.65-1.35-3-3-3zM26 28h-22v-24h22v24zM8 14h14v2h-14zM8 18h14v2h-14zM8 22h14v2h-14zM8 10h14v2h-14z"></path>
</symbol>

<symbol id="icon-map2" viewBox="0 0 32 32">
<path d="M21 6l-10-4-11 4v24l11-4 10 4 11-4v-24l-11 4zM12 4.554l8 3.2v19.692l-8-3.2v-19.692zM2 7.401l8-2.909v19.744l-8 2.909v-19.744zM30 24.599l-8 2.909v-19.744l8-2.909v19.744z"></path>
</symbol>
</defs>
</svg>
