<svg width="40" height="40" viewBox="0 0 40 40" fill="none" xmlns="http://www.w3.org/2000/svg">
<path d="M37.1767 9.35C35.8842 9.9225 34.4942 10.3042 33.0275 10.485C34.5183 9.6 35.6658 8.18833 36.2042 6.52C34.8092 7.3375 33.2633 7.93833 31.6192 8.255C30.3058 6.86333 28.4325 6 26.3575 6C22.3717 6 19.14 9.2025 19.14 13.1517C19.14 13.7108 19.2058 14.255 19.3283 14.7833C13.3317 14.4825 8.0125 11.6317 4.45417 7.305C3.82917 8.3625 3.4775 9.6 3.4775 10.9067C3.4775 13.3892 4.74833 15.575 6.68667 16.8625C5.50333 16.8267 4.39 16.4975 3.415 15.9692C3.415 15.9908 3.415 16.0225 3.415 16.0533C3.415 19.5225 5.90333 22.4117 9.20167 23.0692C8.59917 23.2342 7.96167 23.3258 7.305 23.3258C6.83917 23.3258 6.385 23.2733 5.945 23.1942C6.86333 26.0292 9.5275 28.1017 12.6842 28.1633C10.2142 30.0783 7.10333 31.225 3.72083 31.225C3.13667 31.225 2.565 31.1917 2 31.1233C5.1975 33.1475 8.99167 34.3333 13.065 34.3333C26.3375 34.3333 33.5992 23.4342 33.5992 13.9783C33.5992 13.6683 33.5892 13.36 33.575 13.055C34.9917 12.0542 36.2125 10.7925 37.1767 9.35Z" fill="url(#paint0_linear_15_1466)"/>
<defs>
<linearGradient id="paint0_linear_15_1466" x1="7.37333" y1="7.09333" x2="32.7542" y2="32.4742" gradientUnits="userSpaceOnUse">
<stop stop-color="#2AA4F4"/>
<stop offset="1" stop-color="#007AD9"/>
</linearGradient>
</defs>
</svg>
