<svg width="40" height="40" viewBox="0 0 40 40" fill="none" xmlns="http://www.w3.org/2000/svg">
<path d="M37.51 28.8001C37.1441 30.6667 35.59 32.0892 33.67 32.3559C30.6525 32.8001 25.6233 33.3334 19.9541 33.3334C14.3766 33.3334 9.34746 32.8001 6.23829 32.3559C4.31829 32.0892 2.76329 30.6667 2.39829 28.8001C2.03246 26.7559 1.66663 23.7334 1.66663 20.0001C1.66663 16.2667 2.03246 13.2442 2.39829 11.2001C2.76413 9.33341 4.31829 7.91092 6.23829 7.64425C9.25579 7.20008 14.285 6.66675 19.9541 6.66675C25.6233 6.66675 30.5608 7.20008 33.67 7.64425C35.59 7.91092 37.145 9.33341 37.51 11.2001C37.8758 13.2442 38.3333 16.2667 38.3333 20.0001C38.2416 23.7334 37.8758 26.7559 37.51 28.8001Z" fill="url(#paint0_linear_15_1474)"/>
<path opacity="0.05" d="M26.96 18.7L17.43 12.3466C16.9492 12.0258 16.335 11.9958 15.8258 12.2691C15.3167 12.5416 15 13.0691 15 13.6466V26.3533C15 26.9308 15.3167 27.4591 15.8258 27.7316C16.0575 27.8558 16.31 27.9166 16.5625 27.9166C16.8658 27.9166 17.1675 27.8283 17.4292 27.6541L26.9592 21.3008C27.395 21.01 27.655 20.5241 27.655 20.0008C27.6558 19.4766 27.395 18.9908 26.96 18.7Z" fill="black"/>
<path opacity="0.07" d="M17.2341 12.6975L26.2258 18.6925C26.8 19.105 27.1866 19.4742 27.1866 19.9533C27.1866 20.4325 27 20.7667 26.5908 21.065C26.2816 21.29 17.3866 27.2017 17.3866 27.2017C16.6358 27.705 15.4166 27.5983 15.4166 25.9525V13.9533C15.4166 12.2825 16.7366 12.3658 17.2341 12.6975Z" fill="black"/>
<path d="M15.8334 26.3065V13.694C15.8334 13.0749 16.5234 12.7049 17.0392 13.049L26.4992 19.3557C26.96 19.6624 26.96 20.339 26.4992 20.6465L17.0392 26.9532C16.5234 27.2957 15.8334 26.9265 15.8334 26.3065Z" fill="white"/>
<defs>
<linearGradient id="paint0_linear_15_1474" x1="8.17996" y1="8.22592" x2="34.3716" y2="34.4176" gradientUnits="userSpaceOnUse">
<stop stop-color="#F44F5A"/>
<stop offset="0.443" stop-color="#EE3D4A"/>
<stop offset="1" stop-color="#E52030"/>
</linearGradient>
</defs>
</svg>
